<?xml version="1.0" encoding="utf-8"?>
<!-- Generator: Adobe Illustrator 27.9.0, SVG Export Plug-In . SVG Version: 6.00 Build 0)  -->
<svg version="1.1" id="Layer_1" xmlns="http://www.w3.org/2000/svg" xmlns:xlink="http://www.w3.org/1999/xlink" x="0px" y="0px"
	 viewBox="0 0 448.95 255.94" style="enable-background:new 0 0 448.95 255.94;" xml:space="preserve">
<style type="text/css">
	.st0{fill:#008BFF;}
</style>
<g>
	<path d="M188.42,124.81c0-19.64,16.13-29.14,28.65-29.14c9.82,0,15.11,5.4,15.54,6.37h0.32v-5.29h18.67l0,57.21h-18.67l0-6.37
		h-0.32c-0.43,0.97-5.72,6.37-15.54,6.37C204.55,153.95,188.42,144.46,188.42,124.81z M230.37,124.81c0-7.99-5.61-12.63-12.31-12.63
		c-6.48,0-12.2,4.75-12.2,12.63s5.72,12.63,12.2,12.63C224.75,137.44,230.37,132.8,230.37,124.81z"/>
	<rect x="326.52" y="88.29" width="18.67" height="65.66"/>
	<circle class="st0" cx="335.85" cy="68.91" r="13.48"/>
	<path d="M317.25,76.24h-16.43v25.8h-0.32c-0.43-0.97-5.72-6.37-15.54-6.37c-12.52,0-28.44,9.5-28.44,29.14s15.92,29.14,28.44,29.14
		c9.82,0,15.11-5.4,15.54-6.37h0.32l0,6.37h18.67l0-73.55C318.59,79.12,317.83,77.72,317.25,76.24z M285.95,137.44
		c-6.48,0-12.2-4.75-12.2-12.63c0-7.88,5.72-12.63,12.2-12.63c6.69,0,12.3,4.64,12.3,12.63
		C298.25,132.8,292.64,137.44,285.95,137.44z"/>
	<path d="M164.39,96.75c-7.45,0-12.74,3.13-15.97,7.66v-6.58h-9.18l-9.49,15.3v40.82h18.67v-29.79c0-5.83,2.7-10.9,8.96-10.9
		c6.37,0,9.17,5.07,9.17,10.9v29.79h18.67v-33.03C185.22,103.77,175.72,96.75,164.39,96.75z"/>
	<g>
		<path class="st0" d="M96.83,153.68c-0.53,0.12-1.07,0.21-1.62,0.25c-3.35,0.25-6.61-1.12-8.78-3.68L67,127.33
			c-3.75-4.42-3.2-11.04,1.22-14.79c4.42-3.75,11.04-3.2,14.79,1.22l10.11,11.92l37.3-60.14c3.06-4.92,9.52-6.44,14.45-3.39
			c4.92,3.05,6.44,9.52,3.39,14.45l-44.9,72.39C101.87,151.38,99.52,153.05,96.83,153.68z"/>
	</g>
</g>
</svg>
